<svg width="802" height="553" viewBox="0 0 802 553" fill="none" xmlns="http://www.w3.org/2000/svg">
<g clip-path="url(#clip0)">
<path d="M815.433 -9.26276H-13.434V562.263H815.433V-9.26276Z" fill="#FAFAFA"/>
<path d="M362.817 157.967H286.453C286.453 201.587 320.643 236.951 362.818 236.951V157.967H362.817Z" fill="#FFD0B9"/>
<path d="M171.906 157.967C192.993 157.967 210.089 175.647 210.089 197.459V394.916H133.723V197.457C133.723 175.647 150.819 157.967 171.906 157.967Z" fill="#FFD0B9"/>
<path d="M171.906 236.949C192.993 236.949 210.089 254.63 210.089 276.441V394.916H133.723V276.441C133.723 254.631 150.819 236.949 171.906 236.949Z" fill="#307FB1"/>
<path d="M286.453 473.899C244.279 473.899 210.089 438.536 210.089 394.915H286.453V473.899Z" fill="#FFD0B9"/>
<path d="M286.453 473.899C328.628 473.899 362.818 438.536 362.818 394.915H286.453V473.899Z" fill="#E63946"/>
<path d="M286.453 394.915C244.279 394.915 210.089 359.553 210.089 315.932H286.453V394.915Z" fill="#BECCD3"/>
<path d="M286.453 394.915C328.628 394.915 362.818 359.553 362.818 315.932C320.643 315.932 286.453 351.294 286.453 394.915Z" fill="#307FB1"/>
<path d="M-19.0053 236.949C23.1692 236.949 57.3601 201.587 57.3601 157.966H-19.0053V236.949Z" fill="#FFD0B9"/>
<path d="M-19.0053 157.967C23.1692 157.967 57.3601 122.605 57.3601 78.9839C15.1834 78.9839 -19.0053 114.345 -19.0053 157.967Z" fill="#307FB1"/>
<path d="M133.723 473.899C91.5488 473.899 57.359 438.536 57.359 394.915C99.5346 394.915 133.723 430.278 133.723 473.899Z" fill="#307FB1"/>
<path d="M744.641 236.949C702.466 236.949 668.276 201.587 668.276 157.966H668.277C710.451 157.967 744.641 193.329 744.641 236.949Z" fill="#E63946"/>
<path d="M744.641 394.915C702.466 394.915 668.276 359.553 668.276 315.932H668.277C710.451 315.932 744.641 351.294 744.641 394.915Z" fill="#E63946"/>
<path d="M439.183 315.932H362.817V394.915H439.183V315.932Z" fill="#FFD0B9"/>
<path d="M439.183 315.932V394.915L477.364 355.424L439.183 315.932Z" fill="#BECCD3"/>
<path d="M515.547 315.932V394.915L477.364 355.424L515.547 315.932Z" fill="#BECCD3"/>
<path d="M515.547 78.9839V157.967L553.729 118.475L515.547 78.9839Z" fill="#E63946"/>
<path d="M591.911 78.9839V157.967L553.729 118.475L591.911 78.9839Z" fill="#E63946"/>
<path d="M57.359 473.899V552.883L95.5417 513.391L57.359 473.899Z" fill="#BECCD3"/>
<path d="M133.723 473.899V552.883L95.5417 513.391L133.723 473.899Z" fill="#BECCD3"/>
<path d="M553.73 394.916C574.817 394.916 591.912 377.235 591.912 355.424C591.912 333.613 574.817 315.932 553.73 315.932C532.642 315.932 515.547 333.613 515.547 355.424C515.547 377.235 532.642 394.916 553.73 394.916Z" fill="#307FB1"/>
<path d="M362.817 236.949V315.932C404.993 315.932 439.183 280.57 439.183 236.949H362.817Z" fill="#BECCD3"/>
<path d="M439.183 236.949V157.966C397.007 157.966 362.817 193.328 362.817 236.949H439.183Z" fill="#307FB1"/>
<path d="M515.547 236.949H591.911C591.911 193.329 557.721 157.966 515.547 157.966V236.949Z" fill="#307FB1"/>
<path d="M515.547 236.949H553.729C553.729 215.139 536.634 197.458 515.547 197.458V236.949Z" fill="#FAFAFA"/>
<path d="M668.276 157.967H744.641C744.641 114.346 710.45 78.9839 668.277 78.9839L668.276 157.967Z" fill="#307FB1"/>
<path d="M668.276 236.949H744.641C744.641 280.57 710.45 315.932 668.277 315.932L668.276 236.949Z" fill="#FFD0B9"/>
<path d="M821.005 473.899C778.831 473.899 744.641 438.536 744.641 394.915C786.817 394.915 821.005 430.278 821.005 473.899Z" fill="#E63946"/>
<path d="M744.641 473.899H821.005C821.005 517.52 786.815 552.882 744.641 552.882V473.899Z" fill="#FFD0B9"/>
<path d="M668.276 236.949H591.911C591.911 193.329 626.101 157.966 668.276 157.966V236.949Z" fill="#BECCD3"/>
<path d="M439.183 78.9839C481.357 78.9839 515.547 114.346 515.547 157.967V315.933C473.372 315.933 439.183 280.571 439.183 236.951V78.9839Z" fill="#FFD0B9"/>
<path d="M515.547 157.967H439.183V236.951H515.547V157.967Z" fill="#E63946"/>
<path d="M248.27 236.949C227.183 236.949 210.088 254.63 210.088 276.441C210.088 298.252 227.182 315.933 248.27 315.933C269.358 315.933 286.453 298.253 286.453 276.441C286.453 254.631 269.359 236.949 248.27 236.949Z" fill="#FFD0B9"/>
<path d="M171.906 473.899C150.819 473.899 133.723 491.579 133.723 513.39C133.723 535.201 150.818 552.882 171.906 552.882C192.993 552.882 210.089 535.201 210.089 513.39C210.089 491.58 192.993 473.899 171.906 473.899Z" fill="#FFD0B9"/>
<path d="M210.659 196.868V197.439C210.659 219.249 227.768 236.969 247.016 236.969V236.989C268.403 236.989 285.512 219.24 285.512 197.429V196.868H210.659Z" fill="#E63946"/>
<path d="M210.659 196.868V197.439C210.659 175.628 227.768 157.987 247.016 157.987V158.006C268.403 158.006 285.512 175.618 285.512 197.429V196.868H210.659Z" fill="#BECCD3"/>
<path d="M362.817 276.5C362.817 254.69 345.722 237.008 324.635 237.008C303.547 237.008 286.452 254.689 286.452 276.5H362.817Z" fill="#E63946"/>
<path d="M439.496 515.396V513.685C439.496 491.875 422.387 474.076 401 474.076V474.016C380.683 474.016 362.504 491.903 362.504 513.714V515.396H439.496Z" fill="#E63946"/>
<path d="M439.496 515.396V513.685C439.496 535.496 422.387 553.06 401 553.06V553C380.683 553 362.504 535.525 362.504 513.715V515.396H439.496Z" fill="#BECCD3"/>
<path d="M362.817 276.5C362.817 298.311 345.722 315.992 324.635 315.992C303.547 315.992 286.452 298.311 286.452 276.5H362.817Z" fill="#BECCD3"/>
<path d="M744.641 236.949C786.815 236.949 821.005 201.587 821.005 157.966C778.831 157.967 744.641 193.329 744.641 236.949Z" fill="#FFD0B9"/>
<path d="M820.179 117.236V118.377C820.179 96.5671 803.069 78.964 781.683 78.964V79.0038C762.435 79.0038 745.325 96.5472 745.325 118.358V117.236H820.179Z" fill="#307FB1"/>
<path d="M820.179 117.236V118.377C820.179 140.188 803.069 157.947 781.683 157.947V157.987C762.435 157.987 745.325 140.169 745.325 118.357V117.236H820.179Z" fill="#BECCD3"/>
<path d="M286.453 78.9839H210.089V157.967H286.453V78.9839Z" fill="#FFD0B9"/>
<path d="M133.723 157.967H57.359C57.359 114.346 91.5488 78.9839 133.723 78.9839V157.967Z" fill="#E63946"/>
<path d="M133.723 157.967H57.359V236.951H133.723V157.967Z" fill="#BECCD3"/>
<path d="M744.641 315.932H821.005C821.005 272.312 786.815 236.949 744.641 236.949V315.932Z" fill="#307FB1"/>
<path d="M821.005 315.932H744.641V394.915H821.005V315.932Z" fill="#BECCD3"/>
<path d="M133.723 315.932V394.915C91.5488 394.915 57.359 359.553 57.359 315.932H133.723Z" fill="#FFD0B9"/>
<path d="M591.911 473.899V394.915H668.276C668.276 438.537 634.087 473.899 591.911 473.899Z" fill="#E63946"/>
<path d="M591.911 236.949H515.547V315.932H591.911V236.949Z" fill="#E63946"/>
<path d="M210.089 394.915H133.723V473.899H210.089V394.915Z" fill="#BECCD3"/>
<path d="M171.906 315.932C192.993 315.932 210.089 333.613 210.089 355.424V394.915H133.723V355.424C133.723 333.614 150.819 315.932 171.906 315.932Z" fill="#E63946"/>
<path d="M19.1764 394.915C-1.9109 394.915 -19.0063 377.234 -19.0063 355.424V315.932H57.359V355.424C57.359 377.234 40.2636 394.915 19.1764 394.915Z" fill="#E63946"/>
<path d="M591.911 394.915H515.547V473.899H591.911V394.915Z" fill="#FFD0B9"/>
<path d="M439.183 394.915H362.817V473.899H439.183V394.915Z" fill="#307FB1"/>
<path d="M210.089 552.883V473.899L267.361 513.391L210.089 552.883Z" fill="#307FB1"/>
<path d="M362.818 473.899H286.453V552.882H362.818V473.899Z" fill="#FFD0B9"/>
<path d="M668.276 473.899H591.911V552.882H668.276V473.899Z" fill="#FFD0B9"/>
<path d="M744.641 394.915H668.276V473.899H744.641V394.915Z" fill="#BECCD3"/>
<path d="M515.547 473.899H439.183V552.882H515.547V473.899Z" fill="#307FB1"/>
<path d="M553.729 552.883H515.547V473.899H553.729C574.817 473.899 591.911 491.579 591.911 513.39C591.911 535.201 574.817 552.883 553.729 552.883Z" fill="#BECCD3"/>
<path d="M553.73 454.152C564.273 454.152 572.82 445.312 572.82 434.407C572.82 423.502 564.273 414.662 553.73 414.662C543.186 414.662 534.639 423.502 534.639 434.407C534.639 445.312 543.186 454.152 553.73 454.152Z" fill="#FAFAFA"/>
<path d="M248.27 296.187C258.814 296.187 267.361 287.346 267.361 276.441C267.361 265.536 258.814 256.696 248.27 256.696C237.727 256.696 229.18 265.536 229.18 276.441C229.18 287.346 237.727 296.187 248.27 296.187Z" fill="#FAFAFA"/>
<path d="M477.364 217.204C487.908 217.204 496.456 208.363 496.456 197.457C496.456 186.552 487.908 177.711 477.364 177.711C466.82 177.711 458.272 186.552 458.272 197.457C458.272 208.363 466.82 217.204 477.364 217.204Z" fill="#FAFAFA"/>
<path d="M171.906 454.152C182.45 454.152 190.997 445.312 190.997 434.407C190.997 423.502 182.45 414.662 171.906 414.662C161.362 414.662 152.815 423.502 152.815 434.407C152.815 445.312 161.362 454.152 171.906 454.152Z" fill="#FAFAFA"/>
<path d="M399.931 414.721V454.213C410.624 454.213 419.023 445.373 419.023 434.467C419.023 423.56 410.624 414.721 399.931 414.721Z" fill="#FAFAFA"/>
<path d="M744.641 434.407V473.899H706.458L744.641 434.407Z" fill="#307FB1"/>
<path d="M706.458 394.915V434.407H668.276L706.458 394.915Z" fill="#307FB1"/>
<path d="M706.458 434.407V473.899H668.276L706.458 434.407Z" fill="#307FB1"/>
<path d="M744.641 394.915V434.407H706.458L744.641 394.915Z" fill="#307FB1"/>
<path d="M57.3601 394.915H-19.0053V473.899H57.3601V394.915Z" fill="#BECCD3"/>
<path d="M19.1763 473.899H-19.0053V434.407L19.1763 473.899Z" fill="#FFD0B9"/>
<path d="M57.359 434.407H19.1764V394.915L57.359 434.407Z" fill="#FFD0B9"/>
<path d="M19.1763 434.407H-19.0053V394.915L19.1763 434.407Z" fill="#FFD0B9"/>
<path d="M57.359 473.899H19.1764V434.407L57.359 473.899Z" fill="#FFD0B9"/>
<path d="M210.089 118.475V78.9839H248.27L210.089 118.475Z" fill="#307FB1"/>
<path d="M248.27 157.967V118.475H286.453L248.27 157.967Z" fill="#307FB1"/>
<path d="M248.27 118.475V78.9839H286.453L248.27 118.475Z" fill="#307FB1"/>
<path d="M210.089 157.967V118.475H248.27L210.089 157.967Z" fill="#307FB1"/>
<path d="M591.911 394.915V434.407C613 434.407 630.094 416.726 630.094 394.915H591.911Z" fill="#FAFAFA"/>
<path d="M133.723 157.967V78.9839C154.811 78.9839 171.906 96.6644 171.906 118.476C171.906 140.285 154.811 157.967 133.723 157.967Z" fill="#FFD0B9"/>
<path d="M668.276 473.899H744.641C744.641 495.709 727.547 513.39 706.458 513.39C685.372 513.391 668.276 495.709 668.276 473.899Z" fill="#E63946"/>
<path d="M362.817 78.9839H286.453C286.453 122.605 320.643 157.967 362.818 157.967V78.9839H362.817Z" fill="#E63946"/>
<path d="M362.818 0H286.453V78.9839H362.818V0Z" fill="#BECCD3"/>
<path d="M362.817 78.9839V157.967C383.905 157.967 401 140.286 401 118.475C401 96.6644 383.906 78.9839 362.817 78.9839Z" fill="#307FB1"/>
<path d="M668.276 315.932H591.911V394.915H668.276V315.932Z" fill="#BECCD3"/>
<path d="M630.094 375.171C640.638 375.171 649.186 366.33 649.186 355.424C649.186 344.518 640.638 335.678 630.094 335.678C619.55 335.678 611.002 344.518 611.002 355.424C611.002 366.33 619.55 375.171 630.094 375.171Z" fill="#FAFAFA"/>
<path d="M515.547 0C557.721 0 591.911 35.3621 591.911 78.9828H515.547V0Z" fill="#BECCD3"/>
<path d="M515.547 0C473.372 0 439.183 35.3621 439.183 78.9828C481.357 78.9839 515.547 43.6206 515.547 0Z" fill="#307FB1"/>
<path d="M57.359 0C99.5335 0 133.723 35.3621 133.723 78.9828C91.5488 78.9839 57.359 43.6206 57.359 0Z" fill="#E63946"/>
<path d="M439.183 0H362.817V78.9839H439.183V0Z" fill="#FFD0B9"/>
<path d="M362.817 78.9839V0L324.636 39.4919L362.817 78.9839Z" fill="#BECCD3"/>
<path d="M286.453 78.9839V0L324.636 39.4919L286.453 78.9839Z" fill="#BECCD3"/>
<path d="M248.27 78.9839C269.358 78.9839 286.453 61.3027 286.453 39.4919C286.453 17.6811 269.358 0 248.27 0C227.183 0 210.088 17.6811 210.088 39.4919C210.088 61.3027 227.183 78.9839 248.27 78.9839Z" fill="#307FB1"/>
<path d="M57.36 0H-19.0053V78.9839H57.36V0Z" fill="#BECCD3"/>
<path d="M668.276 78.9839V0H668.277C710.45 0 744.641 35.3621 744.641 78.9828L668.276 78.9839Z" fill="#FFD0B9"/>
<path d="M630.094 78.9839C609.006 78.9839 591.911 61.3034 591.911 39.4919V0H668.276V39.4919C668.276 61.3023 651.181 78.9839 630.094 78.9839Z" fill="#E63946"/>
<path d="M782.823 0C803.911 0 821.005 17.6805 821.005 39.4919V78.9839H744.641V39.4919C744.641 17.6805 761.736 0 782.823 0Z" fill="#E63946"/>
<path d="M210.089 0H133.723V78.9839H210.089V0Z" fill="#BECCD3"/>
<path d="M171.906 59.2374C182.45 59.2374 190.997 50.397 190.997 39.4919C190.997 28.5868 182.45 19.7465 171.906 19.7465C161.362 19.7465 152.815 28.5868 152.815 39.4919C152.815 50.397 161.362 59.2374 171.906 59.2374Z" fill="#FAFAFA"/>
<path d="M95.5417 296.188C106.086 296.188 114.634 287.347 114.634 276.441C114.634 265.536 106.086 256.695 95.5417 256.695C84.9976 256.695 76.4498 265.536 76.4498 276.441C76.4498 287.347 84.9976 296.188 95.5417 296.188Z" fill="#E63946"/>
<path d="M19.1763 533.136C29.7199 533.136 38.2672 524.296 38.2672 513.391C38.2672 502.486 29.7199 493.645 19.1763 493.645C8.63279 493.645 0.0855408 502.486 0.0855408 513.391C0.0855408 524.296 8.63279 533.136 19.1763 533.136Z" fill="#307FB1"/>
<path d="M630.094 296.188C640.638 296.188 649.186 287.347 649.186 276.441C649.186 265.536 640.638 256.695 630.094 256.695C619.55 256.695 611.002 265.536 611.002 276.441C611.002 287.347 619.55 296.188 630.094 296.188Z" fill="#307FB1"/>
<path d="M630.094 138.221C640.638 138.221 649.186 129.38 649.186 118.475C649.186 107.569 640.638 98.7282 630.094 98.7282C619.55 98.7282 611.002 107.569 611.002 118.475C611.002 129.38 619.55 138.221 630.094 138.221Z" fill="#BECCD3"/>
<path d="M57.3601 236.949H-19.0053V315.932H57.3601V236.949Z" fill="#307FB1"/>
<path d="M477.364 433.795C456.277 433.795 439.183 451.476 439.183 473.287V473.9H515.547V473.287C515.547 451.476 498.453 433.795 477.364 433.795Z" fill="#E63946"/>
</g>
<defs>
<clipPath id="clip0">
<rect width="802" height="553" fill="white"/>
</clipPath>
</defs>
</svg>
