<?xml version="1.0" encoding="utf-8"?>
<!-- Generator: Adobe Illustrator 16.0.0, SVG Export Plug-In . SVG Version: 6.00 Build 0)  -->
<!DOCTYPE svg PUBLIC "-//W3C//DTD SVG 1.1//EN" "http://www.w3.org/Graphics/SVG/1.1/DTD/svg11.dtd">
<svg version="1.1" xmlns="http://www.w3.org/2000/svg" xmlns:xlink="http://www.w3.org/1999/xlink" x="0px" y="0px"
	 width="318.297px" height="383.708px" viewBox="0 0 318.297 383.708" enable-background="new 0 0 318.297 383.708"
	 xml:space="preserve">
<g id="OBJECTS">
	<g>
		<g display="none">
			<g display="inline">
				<image overflow="visible" width="308" height="55" xlink:href="58C47618.png"  transform="matrix(1 0 0 1 10.2788 383.7075)">
				</image>
				<image overflow="visible" width="308" height="55" xlink:href="58C4761B.png"  transform="matrix(1 0 0 1 -296.7212 383.7075)">
				</image>
			</g>
		</g>
		<g>
			<g>
				<g>
					<path fill="#02395B" d="M126.444,287.78H30.517v47.965c0,26.488,21.474,47.963,47.963,47.963l0,0
						c26.49,0,47.964-21.475,47.964-47.963V287.78z"/>
					<path fill="#FFC000" d="M318.297,287.78h-95.927v95.928l0,0C275.349,383.708,318.297,340.76,318.297,287.78L318.297,287.78z"/>
					<path fill="#FF8500" d="M277.211,287.78h-54.841v54.842l0,0C252.659,342.622,277.211,318.069,277.211,287.78L277.211,287.78z"
						/>
					<rect x="126.444" y="287.78" fill="#B51239" width="95.927" height="95.928"/>
					<rect x="30.517" y="191.854" fill="#02395B" width="95.927" height="95.926"/>
					<rect x="30.517" y="95.927" fill="#FFC000" width="95.927" height="95.927"/>
					<polygon fill="#02395B" points="222.371,191.854 222.371,287.78 318.297,287.78 					"/>
					<rect x="126.444" y="191.854" fill="#1697EF" width="95.927" height="95.926"/>
					<path fill="#B51239" d="M174.408,287.778h-47.96v-47.961c0,13.25,5.369,25.23,14.05,33.91
						C149.177,282.407,161.158,287.778,174.408,287.778z"/>
					<polygon fill="#FF8500" points="318.297,95.927 222.371,95.927 222.371,191.854 					"/>
					<rect x="126.444" y="95.927" fill="#1697EF" width="95.927" height="95.927"/>
					<polygon fill="#0473AA" points="126.444,191.854 222.371,191.854 222.371,95.927 					"/>
					<path fill="#FF8500" d="M126.444,0H30.517l0,0c0,52.979,42.947,95.927,95.927,95.927l0,0V0z"/>
					<path fill="#1697EF" d="M222.371,0L222.371,0v95.927h95.927l0,0C318.297,42.948,275.349,0,222.371,0z"/>
					<rect x="126.444" fill="#FFC000" width="95.927" height="95.927"/>
					<polygon fill="#02395B" points="-295.703,306.174 -295.703,370.622 -263.479,338.399 					"/>
					<polygon fill="#1697EF" points="318.297,214 318.297,169.487 296.041,191.744 					"/>
					<path fill="#DF385B" d="M174.407,239.817h-47.963l0,0c0,26.49,21.474,47.963,47.963,47.963l0,0h47.964l0,0
						C222.371,261.292,200.897,239.817,174.407,239.817L174.407,239.817z"/>
					<polygon fill="#FF8500" points="30.517,143.89 30.517,191.854 78.48,191.854 78.48,143.89 78.48,95.927 30.517,95.927 					"/>
					<polygon fill="#DF385B" points="174.407,335.745 174.407,383.708 222.371,383.708 222.371,335.745 222.371,287.78 
						174.407,287.78 					"/>
					<polygon fill="#02395B" points="174.407,47.963 174.407,95.927 222.371,95.927 222.371,47.963 222.371,0 174.407,0 					"/>
					<path fill="#DF385B" d="M126.444,0H30.517l0,0c0,26.49,10.736,50.471,28.096,67.831L126.444,0z"/>
					<polygon fill="#FFC000" points="270.334,143.89 318.297,95.927 222.371,95.927 					"/>
					<g>
						<g>
							<circle fill="#FF8500" cx="5.647" cy="119.928" r="5.647"/>
							<circle fill="#FF8500" cx="5.647" cy="147.096" r="5.647"/>
							<circle fill="#FF8500" cx="5.647" cy="174.265" r="5.647"/>
						</g>
					</g>
					<g>
						<g>
							<circle fill="#02395B" cx="296.339" cy="153.893" r="5.647"/>
							<circle fill="#02395B" cx="277.128" cy="173.104" r="5.647"/>
							<circle fill="#02395B" cx="257.917" cy="192.314" r="5.647"/>
						</g>
					</g>
					<g>
						<g>
							<circle fill="#02395B" cx="277.128" cy="211.757" r="5.647"/>
							<circle fill="#02395B" cx="296.339" cy="230.968" r="5.647"/>
						</g>
					</g>
					<path fill="#0473AA" d="M222.371,0L222.371,0v47.963v47.963l67.83-67.831C272.841,10.737,248.86,0,222.371,0z"/>
					<path fill="#FFFFFF" d="M126.444,143.89L126.444,143.89c0,26.49,21.474,47.963,47.963,47.963l0,0
						c26.49,0,47.964-21.474,47.964-47.963l0,0c0-26.489-21.474-47.963-47.964-47.963l0,0
						C147.917,95.927,126.444,117.401,126.444,143.89z"/>
					<path fill="#02395B" d="M151.733,143.89L151.733,143.89c0,12.522,10.152,22.674,22.674,22.674l0,0
						c12.522,0,22.674-10.151,22.674-22.674l0,0c0-12.522-10.151-22.674-22.674-22.674l0,0
						C161.885,121.216,151.733,131.368,151.733,143.89z"/>
					<path fill="#1697EF" d="M126.448,191.857v47.96c0,26.49-21.48,47.961-47.971,47.961c-26.489,0-47.96-21.471-47.96-47.961
						v-47.96H126.448z"/>
					<path fill="#0473AA" d="M126.448,191.857v47.96c0,26.49-21.48,47.961-47.971,47.961v-95.921H126.448z"/>
					<path fill="#02395B" d="M55.512,236.129L55.512,236.129c0,12.523,10.151,22.674,22.674,22.674l0,0
						c12.522,0,22.674-10.15,22.674-22.674l0,0c0-12.521-10.151-22.674-22.674-22.674l0,0
						C65.664,213.456,55.512,223.608,55.512,236.129z"/>
				</g>
			</g>
		</g>
	</g>
</g>
<g id="DESIGNED_BY_FREEPIK">
	<g>
		<g id="XMLID_29_">
			<g id="XMLID_48_">
				<path id="XMLID_56_" fill="#1F262C" d="M21.382,420.173c-0.432,0.442-0.803,0.931-1.107,1.453l-0.466-0.241
					c-0.066-0.298-0.349-0.503-0.659-0.467c-0.33,0.039-0.567,0.339-0.528,0.67s0.339,0.568,0.67,0.529
					c0.065-0.008,0.127-0.026,0.184-0.053l0.451,0.234c-0.251,0.554-0.433,1.139-0.539,1.744l0.746,0.131
					c0.23-1.306,0.85-2.506,1.792-3.472L21.382,420.173z"/>
				<path id="XMLID_55_" fill="#1F262C" d="M26.871,417.871c-0.171,0-0.341,0.007-0.51,0.018l-0.073-0.626
					c0.188-0.149,0.296-0.39,0.266-0.645c-0.046-0.394-0.402-0.675-0.796-0.629c-0.393,0.047-0.674,0.402-0.628,0.796
					c0.03,0.254,0.189,0.461,0.405,0.563l0.073,0.624c-0.714,0.116-1.403,0.332-2.06,0.646l0.327,0.684
					c0.934-0.447,1.941-0.673,2.995-0.673c0.496,0,0.993,0.053,1.475,0.157l0.161-0.741
					C27.971,417.93,27.421,417.871,26.871,417.871z"/>
				<path id="XMLID_54_" fill="#1F262C" d="M33.473,420.418c0.331-0.041,0.566-0.342,0.525-0.673
					c-0.04-0.331-0.342-0.565-0.672-0.525c-0.31,0.038-0.536,0.304-0.53,0.608l-0.416,0.363c-0.418-0.43-0.89-0.813-1.408-1.139
					l-0.403,0.641c1.134,0.715,2.021,1.727,2.563,2.926l0.69-0.313c-0.251-0.555-0.567-1.072-0.942-1.545l0.402-0.352
					C33.343,420.423,33.408,420.426,33.473,420.418z"/>
				<path id="XMLID_53_" fill="#1F262C" d="M26.323,428.08c-0.386,0.023-0.774,0.034-1.157,0.034c-0.88,0-1.732-0.061-2.479-0.179
					c-0.39-0.063-0.846-0.155-1.27-0.292c1.046,1.86,3.069,3.125,5.388,3.125c2.855,0,5.263-1.916,5.95-4.504
					c-0.682,0.449-1.506,0.825-2.459,1.123C29.118,427.754,27.742,427.994,26.323,428.08z"/>
				<path id="XMLID_49_" fill="#1F262C" d="M26.871,419.387c-3.353,0-6.08,2.666-6.08,5.943c0,0.426,0.047,0.849,0.138,1.262
					c0.674,0.482,2.706,0.89,5.348,0.73c2.879-0.173,5.297-0.957,6.672-2.158c-0.006-0.195-0.021-0.391-0.045-0.582
					C32.522,421.621,29.929,419.387,26.871,419.387z M24.711,425.902c-1.021,0-1.85-0.83-1.85-1.85c0-1.021,0.829-1.85,1.85-1.85
					c1.02,0,1.85,0.829,1.85,1.85C26.561,425.072,25.731,425.902,24.711,425.902z M29.449,424.994c-0.75,0-1.36-0.61-1.36-1.36
					s0.61-1.36,1.36-1.36s1.36,0.61,1.36,1.36S30.199,424.994,29.449,424.994z"/>
			</g>
			<path id="XMLID_46_" fill="#1F262C" d="M42.874,421.254c-0.294-0.116-0.805-0.309-1.382-0.237
				c-0.551,0.068-0.844,0.341-0.844,1.007v0.865h2.228v1.718h-2.228v5.454h-1.932v-5.454h-1.34v-1.718h1.34v-0.888
				c0-1.681,0.896-2.783,2.568-2.783c0.643,0,1.157,0.122,1.59,0.309L42.874,421.254z"/>
			<path id="XMLID_44_" fill="#1F262C" d="M47.577,424.586c-0.177-0.03-0.357-0.047-0.526-0.047c-0.896,0-1.51,0.548-1.51,1.614
				v3.907h-1.932v-7.172h1.872v0.785c0.452-0.674,1.141-0.978,2.021-0.978c0.414,0,0.848,0.128,1.094,0.337L47.577,424.586z"/>
			<path id="XMLID_41_" fill="#1F262C" d="M55.244,426.464c0,0.222-0.015,0.488-0.037,0.651h-5.084
				c0.207,1.036,0.933,1.487,1.843,1.487c0.621,0,1.295-0.251,1.813-0.688l1.133,1.243c-0.814,0.747-1.851,1.088-3.057,1.088
				c-2.198,0-3.723-1.495-3.723-3.753c0-2.257,1.48-3.797,3.627-3.797C53.823,422.697,55.237,424.229,55.244,426.464z
				 M50.129,425.798h3.175c-0.177-0.918-0.732-1.437-1.562-1.437C50.833,424.362,50.3,424.91,50.129,425.798z"/>
			<path id="XMLID_38_" fill="#1F262C" d="M62.897,426.464c0,0.222-0.015,0.488-0.037,0.651h-5.085
				c0.208,1.036,0.933,1.487,1.844,1.487c0.621,0,1.295-0.251,1.813-0.688l1.132,1.243c-0.814,0.747-1.851,1.088-3.057,1.088
				c-2.198,0-3.723-1.495-3.723-3.753c0-2.257,1.48-3.797,3.626-3.797C61.476,422.697,62.89,424.229,62.897,426.464z
				 M57.783,425.798h3.176c-0.178-0.918-0.733-1.437-1.563-1.437C58.486,424.362,57.953,424.91,57.783,425.798z"/>
			<path id="XMLID_35_" fill="#1F262C" d="M71.243,426.472c0,2.153-1.495,3.774-3.472,3.774c-0.962,0-1.643-0.378-2.108-0.933v3.708
				h-1.925v-10.133h1.888v0.792c0.466-0.584,1.154-0.984,2.139-0.984C69.748,422.697,71.243,424.318,71.243,426.472z
				 M65.566,426.472c0,1.132,0.747,1.976,1.843,1.976c1.14,0,1.851-0.881,1.851-1.976c0-1.096-0.711-1.977-1.851-1.977
				C66.313,424.496,65.566,425.339,65.566,426.472z"/>
			<path id="XMLID_32_" fill="#1F262C" d="M74.346,420.543c0,0.695-0.54,1.229-1.236,1.229c-0.695,0-1.229-0.533-1.229-1.229
				c0-0.696,0.533-1.244,1.229-1.244C73.806,419.299,74.346,419.847,74.346,420.543z M74.087,430.061h-1.932v-7.172h1.932V430.061z"
				/>
			<path id="XMLID_30_" fill="#1F262C" d="M77.311,425.443l2.701-2.554h2.369l-3.479,3.375l3.501,3.797h-2.376l-2.716-2.901v2.901
				h-1.932v-10.657h1.932V425.443z"/>
		</g>
		<g>
			<path fill="#1F262C" d="M-54.309,429.997v-1.055c-0.527,0.718-1.392,1.23-2.388,1.23c-1.846,0-3.149-1.406-3.149-3.706
				c0-2.256,1.289-3.721,3.149-3.721c0.952,0,1.816,0.469,2.388,1.245v-3.765h1.099v9.771H-54.309z M-54.309,428.078v-3.208
				c-0.396-0.615-1.245-1.143-2.124-1.143c-1.421,0-2.271,1.172-2.271,2.739s0.85,2.725,2.271,2.725
				C-55.554,429.191-54.704,428.693-54.309,428.078z"/>
			<path fill="#1F262C" d="M-51.79,426.452c0-2.051,1.465-3.706,3.486-3.706c2.139,0,3.398,1.67,3.398,3.794v0.278h-5.728
				c0.088,1.333,1.025,2.446,2.549,2.446c0.806,0,1.626-0.322,2.183-0.894l0.527,0.718c-0.703,0.703-1.655,1.084-2.813,1.084
				C-50.281,430.172-51.79,428.664-51.79,426.452z M-48.318,423.654c-1.509,0-2.256,1.274-2.314,2.358h4.644
				C-46.003,424.958-46.707,423.654-48.318,423.654z"/>
			<path fill="#1F262C" d="M-44.114,429.059l0.571-0.791c0.469,0.542,1.362,1.011,2.329,1.011c1.084,0,1.67-0.513,1.67-1.216
				c0-1.714-4.38-0.659-4.38-3.281c0-1.099,0.952-2.036,2.637-2.036c1.201,0,2.051,0.454,2.622,1.025l-0.513,0.762
				c-0.424-0.513-1.201-0.894-2.109-0.894c-0.967,0-1.567,0.483-1.567,1.113c0,1.553,4.379,0.527,4.379,3.281
				c0,1.187-0.952,2.139-2.783,2.139C-42.415,430.172-43.396,429.821-44.114,429.059z"/>
			<path fill="#1F262C" d="M-37.244,421.178c0-0.41,0.337-0.747,0.732-0.747c0.41,0,0.747,0.337,0.747,0.747
				s-0.337,0.732-0.747,0.732C-36.907,421.911-37.244,421.588-37.244,421.178z M-37.054,429.997v-7.075h1.099v7.075H-37.054z"/>
			<path fill="#1F262C" d="M-34.139,431.813l0.557-0.82c0.586,0.703,1.289,0.967,2.3,0.967c1.172,0,2.27-0.571,2.27-2.124v-1.011
				c-0.512,0.718-1.376,1.26-2.373,1.26c-1.845,0-3.149-1.377-3.149-3.662c0-2.271,1.289-3.677,3.149-3.677
				c0.952,0,1.802,0.469,2.373,1.245v-1.069h1.099v6.87c0,2.344-1.641,3.076-3.369,3.076
				C-32.484,432.868-33.304,432.633-34.139,431.813z M-29.013,427.96v-3.091c-0.381-0.615-1.23-1.143-2.109-1.143
				c-1.421,0-2.271,1.128-2.271,2.695c0,1.553,0.849,2.695,2.271,2.695C-30.243,429.118-29.394,428.576-29.013,427.96z"/>
			<path fill="#1F262C" d="M-21.308,429.997v-4.629c0-1.245-0.629-1.641-1.582-1.641c-0.865,0-1.685,0.527-2.095,1.099v5.171h-1.099
				v-7.075h1.099v1.025c0.498-0.586,1.464-1.201,2.519-1.201c1.479,0,2.256,0.747,2.256,2.285v4.966H-21.308z"/>
			<path fill="#1F262C" d="M-18.789,426.452c0-2.051,1.465-3.706,3.486-3.706c2.138,0,3.398,1.67,3.398,3.794v0.278h-5.728
				c0.088,1.333,1.025,2.446,2.549,2.446c0.806,0,1.626-0.322,2.183-0.894l0.527,0.718c-0.703,0.703-1.655,1.084-2.813,1.084
				C-17.28,430.172-18.789,428.664-18.789,426.452z M-15.317,423.654c-1.509,0-2.256,1.274-2.314,2.358h4.643
				C-13.003,424.958-13.706,423.654-15.317,423.654z"/>
			<path fill="#1F262C" d="M-5.371,429.997v-1.055c-0.527,0.718-1.392,1.23-2.388,1.23c-1.845,0-3.149-1.406-3.149-3.706
				c0-2.256,1.289-3.721,3.149-3.721c0.952,0,1.817,0.469,2.388,1.245v-3.765h1.098v9.771H-5.371z M-5.371,428.078v-3.208
				c-0.396-0.615-1.245-1.143-2.124-1.143c-1.421,0-2.271,1.172-2.271,2.739s0.85,2.725,2.271,2.725
				C-6.616,429.191-5.767,428.693-5.371,428.078z"/>
			<path fill="#1F262C" d="M0.971,429.997v-9.771h1.099v3.765c0.572-0.776,1.421-1.245,2.388-1.245c1.846,0,3.149,1.465,3.149,3.721
				c0,2.3-1.304,3.706-3.149,3.706c-0.996,0-1.86-0.513-2.388-1.23v1.055H0.971z M4.179,429.191c1.436,0,2.286-1.157,2.286-2.725
				s-0.85-2.739-2.286-2.739c-0.864,0-1.729,0.527-2.109,1.143v3.208C2.45,428.693,3.314,429.191,4.179,429.191z"/>
			<path fill="#1F262C" d="M8.807,431.769c0.161,0.073,0.425,0.117,0.601,0.117c0.483,0,0.805-0.161,1.055-0.747l0.468-1.069
				l-2.959-7.148h1.187l2.358,5.801l2.344-5.801h1.201l-3.545,8.511c-0.425,1.025-1.143,1.421-2.08,1.436
				c-0.234,0-0.601-0.044-0.806-0.103L8.807,431.769z"/>
		</g>
	</g>
</g>
</svg>
